<?xml version="1.0" encoding="iso-8859-1"?>
<!-- Generator: Adobe Illustrator 19.0.0, SVG Export Plug-In . SVG Version: 6.00 Build 0)  -->
<svg version="1.1" id="Layer_1" xmlns="http://www.w3.org/2000/svg" xmlns:xlink="http://www.w3.org/1999/xlink" x="0px" y="0px"
	 viewBox="0 0 512 512" style="enable-background:new 0 0 512 512;" xml:space="preserve">
<rect x="376.556" y="205.529" transform="matrix(-0.3199 -0.9474 0.9474 -0.3199 419.4798 727.8359)" style="fill:#3E3D42;" width="188.814" height="15.672"/>
<polygon style="fill:#2D2D30;" points="479.934,215.488 448.176,121.43 433.326,126.445 479.934,264.482 "/>
<rect x="402.708" y="118.956" transform="matrix(-0.9474 -0.3199 0.3199 -0.9474 731.254 546.8517)" style="fill:#3E3D42;" width="15.672" height="188.814"/>
<polygon style="fill:#2D2D30;" points="401.566,264.483 448.175,126.445 433.325,121.43 401.566,215.488 "/>
<rect x="432.912" y="122.295" style="fill:#57565C;" width="15.673" height="188.98"/>
<g>
	
		<rect x="33.212" y="117.326" transform="matrix(-0.9474 -0.3199 0.3199 -0.9474 12.2035 425.4704)" style="fill:#3E3D42;" width="15.673" height="188.814"/>
	
		<rect x="7.052" y="203.903" transform="matrix(-0.3199 -0.9474 0.9474 -0.3199 -66.6946 375.6053)" style="fill:#3E3D42;" width="188.814" height="15.673"/>
</g>
<g>
	<polygon style="fill:#2D2D30;" points="110.433,213.846 78.675,119.789 63.825,124.803 110.433,262.841 	"/>
	<polygon style="fill:#2D2D30;" points="32.066,262.842 78.675,124.803 63.825,119.789 32.066,213.846 	"/>
</g>
<rect x="63.413" y="122.295" style="fill:#57565C;" width="15.673" height="188.98"/>
<g>
	<path style="fill:#FF5023;" d="M370.728,306.658l7.949,12.564c4.721,7.462,12.934,11.984,21.763,11.984h80.621
		c8.829,0,17.043-4.523,21.763-11.984l7.949-12.564c3.302-5.219-0.448-12.029-6.624-12.029H377.351
		C371.176,294.63,367.426,301.439,370.728,306.658z"/>
	<path style="fill:#FF5023;" d="M1.227,305.017l7.949,12.564c4.721,7.462,12.934,11.984,21.763,11.984h80.621
		c8.829,0,17.043-4.523,21.763-11.984l7.949-12.564c3.302-5.219-0.448-12.029-6.624-12.029H7.851
		C1.675,292.988-2.075,299.798,1.227,305.017z"/>
</g>
<g>
	<path style="fill:#FF3501;" d="M421.13,319.428l-13.005-20.555c-0.864-1.366-1.43-2.799-1.735-4.242h-29.039
		c-6.175,0-9.925,6.81-6.624,12.029l7.949,12.564c4.721,7.462,12.934,11.984,21.763,11.984h31.851
		C427.907,328.084,424.095,324.115,421.13,319.428z"/>
	<path style="fill:#FF3501;" d="M51.629,317.787l-13.005-20.555c-0.864-1.366-1.43-2.799-1.735-4.242H7.851
		c-6.175,0-9.925,6.81-6.624,12.029l7.949,12.564c4.721,7.462,12.934,11.984,21.763,11.984h31.851
		C58.407,326.443,54.594,322.473,51.629,317.787z"/>
</g>
<g>
	<path style="fill:#FFE477;" d="M275.681,139.24c14.21,3.311,31.184,5.844,57.148,5.844c60.263,0,72.096-13.642,113.341-18.999
		c7.081-0.92,7.198-11.111,0.138-12.184c-14.365-2.18-32.306-3.094-52.601-0.271c0,0-78.428,7.289-118.025-14.123
		C275.717,99.509,275.681,139.24,275.681,139.24z"/>
	<path style="fill:#FFE477;" d="M236.32,139.24c-14.21,3.311-31.184,5.844-57.148,5.844c-60.263,0-72.096-13.642-113.341-18.999
		c-7.081-0.92-7.198-11.111-0.138-12.184c14.365-2.18,32.306-3.094,52.601-0.271c0,0,78.428,7.289,118.025-14.123
		C236.283,99.509,236.32,139.24,236.32,139.24z"/>
</g>
<g>
	<path style="fill:#FFDA44;" d="M179.171,129.757c-54.387,0-69.33-11.11-102.045-17.216c-4.023,0.348-7.84,0.814-11.434,1.359
		c-7.06,1.071-6.944,11.264,0.138,12.184c41.245,5.357,53.078,18.999,113.341,18.999c25.965,0,42.938-2.533,57.148-5.844
		c0,0-0.006-7.118-0.011-15.324C222.101,127.225,205.129,129.757,179.171,129.757z"/>
	<path style="fill:#FFDA44;" d="M332.83,129.757c54.387,0,69.331-11.11,102.045-17.216c4.023,0.348,7.84,0.814,11.434,1.359
		c7.06,1.071,6.944,11.264-0.138,12.184c-41.245,5.357-53.078,18.999-113.341,18.999c-25.965,0-42.938-2.533-57.148-5.844
		c0,0,0.006-7.118,0.011-15.324C289.9,127.225,306.871,129.757,332.83,129.757z"/>
</g>
<path style="fill:#FFE477;" d="M303.587,411.783h-29.413V106.973h-36.348v304.808h-29.413c-9.995,0-18.174,8.178-18.174,18.174
	s8.178,18.174,18.174,18.174h95.173c9.995,0,18.174-8.178,18.174-18.174l0,0C321.761,419.96,313.582,411.783,303.587,411.783z"/>
<path style="fill:#FFDA44;" d="M256,106.973h-18.174v304.808h-28.923c-10.131,0-18.799,8.289-18.662,18.419
	c0.133,9.884,8.259,17.928,18.172,17.928h0.055c-0.022-0.365-0.055-0.725-0.055-1.095c0-9.996,8.178-18.174,18.174-18.174h16.874
	c6.925,0,12.539-5.614,12.539-12.539V106.973z"/>
<path style="fill:#FFE477;" d="M237.826,106.973l12.715-39.138c1.718-5.287,9.198-5.287,10.916,0l12.715,39.138H237.826z"/>
<path style="fill:#FFD422;" d="M222.182,109.204l6.315,32.153c0.881,4.486,4.814,7.722,9.385,7.722h36.233
	c4.571,0,8.504-3.235,9.385-7.722l6.315-32.153c1.393-7.092-4.035-13.69-11.263-13.69h-45.109
	C226.219,95.514,220.789,102.112,222.182,109.204z"/>
<path style="fill:#EEBF00;" d="M249.06,95.514h-15.615c-7.228,0-12.656,6.599-11.263,13.69l6.315,32.153
	c0.881,4.486,4.814,7.722,9.385,7.722h21.8c-0.164-0.529-0.311-1.067-0.42-1.621L249.06,95.514z"/>
<path style="fill:#FFD422;" d="M273.191,317.105H238.81c-6.276,0-11.823,4.078-13.694,10.068l-6.555,20.973
	c-2.721,8.707-1.14,18.19,4.259,25.543l7.711,10.502c2.883,3.927,7.465,6.246,12.336,6.246h26.269c4.872,0,9.453-2.32,12.336-6.246
	l7.711-10.502c5.399-7.353,6.98-16.835,4.259-25.543l-6.555-20.973C285.014,321.184,279.467,317.105,273.191,317.105z"/>
<g>
	<path style="fill:#EEBF00;" d="M239.338,347.674l4.546-30.569h-5.075c-6.276,0-11.823,4.078-13.694,10.068l-6.555,20.973
		c-2.721,8.707-1.14,18.19,4.259,25.543l7.711,10.502c2.883,3.927,7.464,6.246,12.336,6.246h5.801l-7.598-22.851
		C238.937,361.177,238.345,354.356,239.338,347.674z"/>
	<path style="fill:#EEBF00;" d="M272.662,347.674l-4.546-30.569h5.075c6.276,0,11.823,4.078,13.694,10.068l6.555,20.973
		c2.721,8.707,1.14,18.19-4.259,25.543l-7.711,10.502c-2.883,3.927-7.464,6.246-12.336,6.246h-5.801l7.599-22.851
		C273.063,361.177,273.656,354.356,272.662,347.674z"/>
	<path style="fill:#EEBF00;" d="M222.818,373.689l7.711,10.502c2.883,3.927,7.464,6.246,12.336,6.246h26.269
		c4.872,0,9.453-2.32,12.336-6.246l7.711-10.502c4.252-5.792,6.124-12.903,5.403-19.917h-77.169
		C216.694,360.786,218.567,367.898,222.818,373.689z"/>
</g>
<g>
	<path style="fill:#DDB200;" d="M217.415,353.772c-0.721,7.014,1.151,14.126,5.403,19.917l7.711,10.502
		c2.883,3.927,7.464,6.246,12.336,6.246h5.801l-7.599-22.851c-1.486-4.467-2.206-9.135-2.181-13.816h-21.473V353.772z"/>
	<path style="fill:#DDB200;" d="M294.584,353.772c0.721,7.014-1.151,14.126-5.403,19.917l-7.711,10.502
		c-2.883,3.927-7.464,6.246-12.336,6.246h-5.801l7.599-22.851c1.486-4.467,2.206-9.135,2.181-13.816h21.473V353.772z"/>
</g>
<g>
</g>
<g>
</g>
<g>
</g>
<g>
</g>
<g>
</g>
<g>
</g>
<g>
</g>
<g>
</g>
<g>
</g>
<g>
</g>
<g>
</g>
<g>
</g>
<g>
</g>
<g>
</g>
<g>
</g>
</svg>
