<svg height="512" viewBox="0 0 64 64" width="512" xmlns="http://www.w3.org/2000/svg"><g id="hand_&#xB7;_ecommerce_&#xB7;_shopping_&#xB7;_online_&#xB7;_computer" data-name="hand &#xB7; ecommerce &#xB7; shopping &#xB7; online &#xB7; computer"><rect fill="#004fac" height="40" rx="2" width="58" x="3" y="9"/><path d="m7 13h50v28h-50z" fill="#ffcd00"/><path d="m54 13v10a16 16 0 0 1 -16 16h-31v2h50v-28z" fill="#ebbf00"/><path d="m41 29h10v6h-10z" fill="#cca400"/><path d="m37 55h-18a2.006 2.006 0 0 0 -2 2v4h24v-6z" fill="#a7a9ac"/><path d="m41 53v2 6h20v-8h-2-16z" fill="#006df0"/><path d="m27 49h10v6h-10z" fill="#6d6e71"/><path d="m27 49h10v2h-10z" fill="#58595b"/><path d="m13 19h10v6h-10z" fill="#ed1c24"/><path d="m13 29h10v6h-10z" fill="#5eac24"/><path d="m41 19h10v6h-10z" fill="#ff9811"/><path d="m27 19h10v6h-10z" fill="#2488ff"/><path d="m27 29h10v6h-10z" fill="#d80027"/><path d="m59 33a2.006 2.006 0 0 0 -2 2v-2a2.015 2.015 0 0 0 -2-2 2.006 2.006 0 0 0 -2 2v-1a2.015 2.015 0 0 0 -2-2 2.006 2.006 0 0 0 -2 2v-7a2.012 2.012 0 0 0 -2.177-1.992 2.075 2.075 0 0 0 -1.823 2.104v9.888h-2a2.006 2.006 0 0 0 -2 2v9.183a6 6 0 0 0 1.008 3.329l.656.984a2 2 0 0 1 .336 1.11v1.394h16v-1.394a2 2 0 0 1 .336-1.11l.656-.984a6 6 0 0 0 1.008-3.329v-11.183a2.015 2.015 0 0 0 -2-2z" fill="#ffbcab"/><g fill="#231f20"><path d="m60.17 51.05.65-.98a7 7 0 0 0 1.18-3.89v-35.18a3.009 3.009 0 0 0 -3-3h-54a3.009 3.009 0 0 0 -3 3v36a3.009 3.009 0 0 0 3 3h21v4h-7a3.009 3.009 0 0 0 -3 3v4a1 1 0 0 0 1 1h44a1 1 0 0 0 1-1v-8a1 1 0 0 0 -1-1h-1v-.39a1.023 1.023 0 0 1 .17-.56zm-55.17-3.05a1 1 0 0 1 -1-1v-36a1 1 0 0 1 1-1h54a1 1 0 0 1 1 1v21.19a3.113 3.113 0 0 0 -2-.01v-19.18a1 1 0 0 0 -1-1h-50a1 1 0 0 0 -1 1v28a1 1 0 0 0 1 1h33v4.18a6.949 6.949 0 0 0 .25 1.82zm44.13-25.11a3.01 3.01 0 0 0 -2.39-.88 3.073 3.073 0 0 0 -2.74 3.1v8.89h-1a3.009 3.009 0 0 0 -3 3v3h-32v-26h48v16.2a3.071 3.071 0 0 0 -2.47.19 2.744 2.744 0 0 0 -.4-.5 3.066 3.066 0 0 0 -3.13-.72v-4.17a2.954 2.954 0 0 0 -.87-2.11zm-13.13 27.11v4h-8v-4zm4 10h-22v-3a1 1 0 0 1 1-1h21zm0-7v1h-2v-4h3.05a.235.235 0 0 0 .08-.02c.02.03.03.06.05.09l.65.98a1.023 1.023 0 0 1 .17.56v.39h-1a1 1 0 0 0 -1 1zm20 7h-18v-6h18zm-.84-11.04-.66.98a3 3 0 0 0 -.5 1.67v.39h-14v-.39a3 3 0 0 0 -.5-1.67l-.66-.98a5.016 5.016 0 0 1 -.84-2.78v-9.18a1 1 0 0 1 1-1h1v5a1 1 0 0 0 2 0v-15.89a1.092 1.092 0 0 1 .91-1.11.973.973 0 0 1 .8.31.928.928 0 0 1 .29.69v12a1 1 0 0 0 2 0v-5a1 1 0 0 1 1-1 .949.949 0 0 1 .71.31.928.928 0 0 1 .29.69v5a1 1 0 0 0 2 0v-4a1 1 0 0 1 1-1 .949.949 0 0 1 .71.31.928.928 0 0 1 .29.69v4a1 1 0 0 0 2 0v-2a1 1 0 0 1 1-1 .949.949 0 0 1 .71.31.928.928 0 0 1 .29.69v11.18a5.016 5.016 0 0 1 -.84 2.78z"/><path d="m33 44h-2a1 1 0 0 0 0 2h2a1 1 0 0 0 0-2z"/><path d="m23 18h-10a1 1 0 0 0 -1 1v6a1 1 0 0 0 1 1h10a1 1 0 0 0 1-1v-6a1 1 0 0 0 -1-1zm-1 6h-8v-4h8z"/><path d="m23 28h-10a1 1 0 0 0 -1 1v6a1 1 0 0 0 1 1h10a1 1 0 0 0 1-1v-6a1 1 0 0 0 -1-1zm-1 6h-8v-4h8z"/><path d="m37 18h-10a1 1 0 0 0 -1 1v6a1 1 0 0 0 1 1h10a1 1 0 0 0 1-1v-6a1 1 0 0 0 -1-1zm-1 6h-8v-4h8z"/><path d="m37 28h-10a1 1 0 0 0 -1 1v6a1 1 0 0 0 1 1h10a1 1 0 0 0 1-1v-6a1 1 0 0 0 -1-1zm-1 6h-8v-4h8z"/><path d="m51 18h-10a1 1 0 0 0 -1 1v6a1 1 0 0 0 1 1h1a1 1 0 0 0 0-2v-4h8v3a1 1 0 0 0 2 0v-4a1 1 0 0 0 -1-1z"/><path d="m41 28a1 1 0 0 0 -1 1v3a1 1 0 0 0 2 0v-3a1 1 0 0 0 -1-1z"/></g></g></svg>