<svg height="512" viewBox="0 0 64 64" width="512" xmlns="http://www.w3.org/2000/svg"><g id="Shopping_Bag-Hands-Bag-Purchase-Buy" data-name="Shopping Bag-Hands-Bag-Purchase-Buy"><path d="m43 33v2a2.006 2.006 0 0 1 -2 2h-18a2.006 2.006 0 0 1 -2-2v-2z" fill="#d1d3d4"/><path d="m21 13h22v20h-22z" fill="#3d9ae2"/><path d="m47.33 47.13 10.17-3.7a3.118 3.118 0 0 1 3.92 1.53 3 3 0 0 1 -1.71 4.05l-18.28 6.65a12.009 12.009 0 0 1 -4.93.7l-4.75-.33a12 12 0 0 0 -4.93.69l-3.25 1.18-4.44-12.21.44-.35a16.152 16.152 0 0 1 4.47-2.51l1.56-.56a13.965 13.965 0 0 1 7.22-.63l12.06 2.12a3.015 3.015 0 0 1 2.48 2.95 2.966 2.966 0 0 1 -.03.42z" fill="#ffc477"/><path d="m43 33v2a2.006 2.006 0 0 1 -2 2h-2a2.006 2.006 0 0 1 -2-2v-2z" fill="#c6c5ca"/><path d="m57 33v2a2.006 2.006 0 0 1 -2 2h-14a2.006 2.006 0 0 1 -2-2v-2z" fill="#e6e7e8"/><path d="m39 20h18v13h-18z" fill="#ff5023"/><path d="m24.26 59.78-3.35 1.22h-8.98l-4.42-12.15-.34-.94 11.27-4.1.69 1.88 4.44 12.21z" fill="#3d9ae2"/><path d="m11.93 61h-6.39l-3.67-10.1 5.64-2.05z" fill="#5aaae7"/><path d="m37 20h2v13h-2z" fill="#1e81ce"/><path d="m43 12h-4v-3a7 7 0 0 0 -14 0v3h-4a1 1 0 0 0 -1 1v22a3.009 3.009 0 0 0 3 3h13v-2h-13a1 1 0 0 1 -1-1v-1h14v-2h-14v-18h3v3h2v-3h10v3h2v-3h3v3h2v-4a1 1 0 0 0 -1-1zm-6 0h-10v-3a5 5 0 0 1 10 0z"/><path d="m57 19h-18a1 1 0 0 0 -1 1v15a3.009 3.009 0 0 0 3 3h14a3.009 3.009 0 0 0 3-3v-15a1 1 0 0 0 -1-1zm-1 16a1 1 0 0 1 -1 1h-14a1 1 0 0 1 -1-1v-1h16zm0-3h-16v-11h16z"/><path d="m48 30a5.006 5.006 0 0 0 5-5v-2h-2v2a3 3 0 0 1 -6 0v-2h-2v2a5.006 5.006 0 0 0 5 5z"/><path d="m62.332 44.55a4.109 4.109 0 0 0 -5.176-2.062l-8.93 3.25a4 4 0 0 0 -3.174-2.959l-12.063-2.127a15.018 15.018 0 0 0 -7.735.677l-1.554.571a16.917 16.917 0 0 0 -4.1 2.179l-.221-.607a1 1 0 0 0 -1.281-.6l-11.277 4.1a1 1 0 0 0 -.6 1.281l-4.7 1.71.684 1.879 4.7-1.71 4.079 11.208 1.879-.684-4.416-12.146 9.4-3.42 5.131 14.1-2.4.875.684 1.878 3.338-1.22a1 1 0 0 0 .6-1.282l-.342-.94 2.3-.838a10.943 10.943 0 0 1 4.523-.638l4.744.329a12.842 12.842 0 0 0 5.345-.753l18.28-6.653a4 4 0 0 0 2.281-5.4zm-1.838 2.483a1.984 1.984 0 0 1 -1.127 1.035l-18.28 6.654a10.893 10.893 0 0 1 -4.523.637l-4.744-.329a12.959 12.959 0 0 0 -5.344.753l-2.306.839-3.855-10.592a14.922 14.922 0 0 1 4.07-2.256l1.552-.565a13.015 13.015 0 0 1 6.705-.587l12.058 2.127a2 2 0 1 1 -.694 3.939l-10.833-1.91-.348 1.97 10.833 1.91a3.982 3.982 0 0 0 4.506-2.77l9.672-3.521a2.13 2.13 0 0 1 2.667 1 2.01 2.01 0 0 1 -.009 1.666z"/></g></svg>